<svg id="Glyph_Blue" enable-background="new 0 0 64 64" viewBox="0 0 64 64" xmlns="http://www.w3.org/2000/svg"><path d="m53.6676445 13.496582h-43.3349619c-2.7568364 0-5.0000005 2.2431641-5.0000005 5v27.006836c0 2.7568359 2.2431641 5 5.0000005 5h43.3349609c2.7568359 0 5-2.2431641 5-5v-27.006836c.000001-2.7568359-2.2431631-5-4.999999-5zm-38.4658213 22.7646485c-.0211906 1.3118896-1.9779148 1.3164101-1.9999981-.0000458-.0000019.0000458-.0000019-8.5224152-.0000019-8.5224152.0211897-1.3118877 1.9779148-1.316412 1.9999981.0000439.0000019-.0000439.0000019 8.5224171.0000019 8.5224171zm4.4492178 3.7563476c-.0204372 1.3094292-1.9776764 1.3184357-1.9999962-.0000458-.0000038.0000458-.0000038-16.0351105-.0000038-16.0351105.0204372-1.3094273 1.9776783-1.3184357 1.9999981.0000458.0000019-.0000457.0000019 16.0351105.0000019 16.0351105zm4.4492188 4.8862305c-.0194092 1.3059387-1.9773617 1.3212891-1.9999962-.0000496-.0000038.0000496-.0000038-25.8075676-.0000038-25.8075676.0194111-1.3059406 1.9773617-1.3212891 1.9999981.0000496.0000019-.0000496.0000019 25.8075676.0000019 25.8075676zm4.4501953-4.8862305c-.0204372 1.3094292-1.9776764 1.3184357-1.9999962-.0000458-.0000038.0000458-.0000038-16.0351105-.0000038-16.0351105.0204372-1.3094273 1.9776783-1.3184357 1.9999981.0000458.0000019-.0000457.0000019 16.0351105.0000019 16.0351105zm4.4492207-3.7563476c-.0211906 1.3118896-1.9779167 1.3164101-2-.0000458-.0000019.0000458-.0000019-8.5224152-.0000019-8.5224152.0211906-1.3118877 1.9779148-1.316412 1.9999981.0000439.0000038-.0000439.0000038 8.5224171.0000038 8.5224171zm4.4501953 3.7563476c-.0204391 1.3094292-1.9776802 1.3184357-2-.0000458v-16.0351105c.0204353-1.3094273 1.9776764-1.3184357 1.9999962.0000458.0000038-.0000457.0000038 16.0351105.0000038 16.0351105zm4.4492187 4.8862305c-.019413 1.3059387-1.9773636 1.3212891-2-.0000496v-25.8075676c.0194092-1.3059406 1.9773598-1.3212891 1.9999962.0000496.0000038-.0000496.0000038 25.8075676.0000038 25.8075676zm4.4501953-4.8862305c-.0204391 1.3094292-1.9776802 1.3184357-2-.0000458v-16.0351105c.0204353-1.3094273 1.9776764-1.3184357 1.9999962.0000458.0000038-.0000457.0000038 16.0351105.0000038 16.0351105zm4.4492188-3.7563476c-.0211906 1.3118896-1.9779167 1.3164101-2-.0000458v-8.5224152c.0211906-1.3118877 1.9779129-1.316412 1.9999962.0000439.0000038-.0000439.0000038 8.5224171.0000038 8.5224171z" fill="#80a9da"/></svg>